<?xml version="1.0" encoding="utf-8"?>
<!-- Generator: Adobe Illustrator 26.0.1, SVG Export Plug-In . SVG Version: 6.00 Build 0)  -->
<svg version="1.1" id="Слой_1" xmlns="http://www.w3.org/2000/svg" xmlns:xlink="http://www.w3.org/1999/xlink" x="0px" y="0px"
	 viewBox="0 0 1080 1080" style="enable-background:new 0 0 1080 1080;" xml:space="preserve">
<style type="text/css">
	.st0{fill:#BC134C;}
	.st1{fill:#606970;}
</style>
<path class="st0" d="M1026,354.4L705.5,37.8c-4.9-4.9-4.9-12.8,0-17.7v0c4.9-4.9,12.8-4.9,17.7,0l320.5,316.6
	c4.9,4.9,4.9,12.8,0,17.7v0C1038.8,359.3,1030.9,359.3,1026,354.4z"/>
<path class="st0" d="M535.3,839.8L214.8,523.2c-4.9-4.9-4.9-12.8,0-17.7h0c4.9-4.9,12.8-4.9,17.7,0L553,822.2
	c4.9,4.9,4.9,12.8,0,17.7l0,0C548.1,844.7,540.2,844.7,535.3,839.8z"/>
<path class="st1" d="M559.4,582.8L559.4,582.8c-7.7,0-14-6.3-14-14V355.3c0-7.7,6.3-14,14-14h0c7.7,0,14,6.3,14,14v213.5
	C573.4,576.6,567.1,582.8,559.4,582.8z"/>
<circle class="st1" cx="559.4" cy="304.5" r="14"/>
<g>
	<path class="st1" d="M505,394.1c8.3,0,15.1-6.8,15.1-15.1v-16.8c0-22.3-5.6-40.1-16.7-52.7c-11-12.6-27.5-19-48.8-19
		c-21.2,0-37.4,6.4-48.3,19c-10.9,12.6-16.4,30.4-16.4,52.7V511c0,22.3,5.6,40.1,16.5,52.8c10.9,12.7,27.1,19.1,48.2,19.1
		c14.7,0,25.8-2.3,36.1-8.8c8-5,9.1-16.3,2.4-22.9l0,0c-4.9-4.8-12.4-5.6-18.3-2c-5.7,3.6-13.4,6.5-20.3,6.5
		c-11.7,0-20.7-3.8-26.5-11.3c-5.8-7.4-8.8-18-8.8-31.4V360.4c0-13.6,3-24.3,8.8-31.7c5.9-7.5,14.8-11.3,26.5-11.3
		c23.4,0,35.3,14.5,35.3,43.1V379C489.9,387.3,496.7,394.1,505,394.1L505,394.1z"/>
</g>
<g>
	<path class="st1" d="M712.3,394.1c8.3,0,15.1-6.8,15.1-15.1v-16.8c0-22.3-5.6-40.1-16.7-52.7c-11-12.6-27.5-19-48.8-19
		c-21.2,0-37.4,6.4-48.3,19c-10.9,12.6-16.4,30.4-16.4,52.7V511c0,22.3,5.6,40.1,16.5,52.8c10.9,12.7,27.1,19.1,48.2,19.1
		c14.7,0,25.8-2.3,36.1-8.8c8-5,9.1-16.3,2.4-22.9h0c-4.9-4.8-12.4-5.6-18.3-2c-5.7,3.6-13.4,6.5-20.3,6.5
		c-11.7,0-20.7-3.8-26.5-11.3c-5.8-7.4-8.8-18-8.8-31.4V360.4c0-13.6,3-24.3,8.8-31.7c5.9-7.5,14.8-11.3,26.5-11.3
		c23.4,0,35.3,14.5,35.3,43.1V379C697.2,387.3,703.9,394.1,712.3,394.1L712.3,394.1z"/>
</g>
<path class="st1" d="M884,437.1v75.4c0,22.8-5.7,40.9-17,53.9c-11.3,12.9-28,19.5-49.8,19.5c-21.5,0-38-6.5-49.2-19.5
	c-11.2-12.9-16.9-31.1-16.9-53.9V360.7c0-22.8,5.6-40.9,16.8-53.8c11.1-12.9,27.7-19.4,49.3-19.4c12.5,0,23.3,2.1,32.4,6.4
	c5.3,2.5,8.2,7.7,8.2,13c0,3.6-1.3,7.2-4.2,10.1c-4.6,4.6-11.6,5.6-17.3,2.4c-5.2-3-11.6-4.5-19.2-4.5c-12,0-21.1,3.9-27.1,11.6
	c-6,7.6-9,18.5-9,32.4v155.7c0,13.7,3,24.5,9,32.1c6,7.6,15.1,11.5,27.1,11.5c12.1,0,21.2-3.9,27.2-11.5c5.9-7.5,8.9-18.3,8.9-32.1
	v-63.1h-21.3c-7.9,0-14.3-6.4-14.3-14.4l0,0c0-7.9,6.4-14.4,14.3-14.4h37.8C877.6,422.7,884,429.1,884,437.1z"/>
<g>
	<path class="st1" d="M122.9,782.1l-18.1-17.9c-2.7-2.7-4.2-5.5-4.5-8.3c-0.3-2.9,0.9-5.6,3.4-8.2c2.6-2.6,5.3-3.8,8.2-3.6
		c2.9,0.2,5.7,1.7,8.4,4.4l3.2,3.1l-3.6,3.7l-3.4-3.3c-3.4-3.3-6.4-3.6-9.1-0.9c-1.4,1.4-1.9,2.8-1.7,4.4s1.1,3.1,2.7,4.7l18.5,18.3
		c1.6,1.6,3.2,2.5,4.8,2.7c1.6,0.2,3-0.4,4.4-1.8c2.7-2.7,2.4-5.8-1-9.1l-4.5-4.5l3.6-3.7l4.3,4.3c2.7,2.7,4.2,5.5,4.5,8.4
		c0.3,2.9-0.9,5.6-3.5,8.2c-2.6,2.6-5.3,3.8-8.1,3.6C128.4,786.3,125.6,784.8,122.9,782.1z"/>
	<path class="st1" d="M150.4,771.2l-35-34.6l14.2-14.4l3.6,3.5l-10.4,10.5l11.9,11.8l8.4-8.6l3.5,3.5l-8.4,8.6l12.5,12.3l10.4-10.5
		l3.5,3.5L150.4,771.2z"/>
	<path class="st1" d="M168.1,753.2l-35-34.6l4.9-4.9l33.4,17L146,705.6l3.4-3.5l35,34.6l-4,4.1l-37.1-18.9l28.3,27.9L168.1,753.2z"
		/>
	<path class="st1" d="M155.5,703.1l-3.6-3.5l16.6-16.8l3.6,3.5l-6.4,6.5l31.5,31.1l-3.8,3.8l-31.5-31.1L155.5,703.1z"/>
	<path class="st1" d="M206.1,714.7l-35-34.6l7.7-7.8c2.7-2.7,5.3-4,7.9-3.9c2.6,0.1,5.2,1.4,7.9,4l2.9,2.8c3.9,3.8,4.9,7.7,2.9,11.5
		c2-1.1,3.9-1.4,5.8-0.9c1.9,0.5,3.8,1.7,5.8,3.7l5.4,5.4c1.9,1.9,3.6,3.1,4.9,3.5l-3.9,3.9c-1.4-0.6-3.1-1.7-4.9-3.5l-5.5-5.4
		c-1.9-1.9-3.7-2.8-5.3-2.7c-1.6,0.1-3.3,1-5,2.7l-2.7,2.7l15,14.8L206.1,714.7z M191.5,692.5l2.8-2.9c1.6-1.7,2.5-3.2,2.6-4.8
		c0.1-1.5-0.7-3.2-2.5-4.9l-3.4-3.3c-1.6-1.6-3.1-2.5-4.6-2.6c-1.4-0.1-2.8,0.5-4.2,1.9l-3.7,3.8L191.5,692.5z"/>
	<path class="st1" d="M225.6,695l-35-34.6l14.2-14.4l3.6,3.5L198,660l11.9,11.8l8.4-8.6l3.5,3.5l-8.4,8.6l12.5,12.3l10.4-10.5
		l3.5,3.5L225.6,695z"/>
	<path class="st1" d="M78.8,963.8l-35-34.6l3.9-3.9l35,34.6L78.8,963.8z"/>
	<path class="st1" d="M86.6,955.9l-35-34.6l4.9-4.9l33.4,17l-25.4-25.1l3.4-3.5l35,34.6l-4,4.1l-37.1-18.9L90,952.4L86.6,955.9z"/>
	<path class="st1" d="M73.9,905.8l-3.6-3.5L87,885.5l3.6,3.5l-6.4,6.5l31.5,31.1l-3.8,3.8l-31.5-31.1L73.9,905.8z"/>
	<path class="st1" d="M124.6,917.4l-35-34.6l14.2-14.4l3.6,3.5L97,882.4l11.9,11.8l8.4-8.6l3.5,3.5l-8.4,8.6l12.5,12.3l10.4-10.5
		l3.5,3.5L124.6,917.4z"/>
	<path class="st1" d="M142.4,899.4l-35-34.6l7.7-7.8c2.7-2.7,5.3-4,7.9-3.9c2.6,0.1,5.2,1.4,7.9,4l2.9,2.8c3.9,3.8,4.9,7.7,2.9,11.5
		c2-1.1,3.9-1.4,5.8-0.9c1.9,0.5,3.8,1.7,5.8,3.7l5.4,5.4c1.9,1.9,3.6,3.1,4.9,3.5l-3.9,3.9c-1.4-0.6-3.1-1.7-4.9-3.5l-5.5-5.4
		c-1.9-1.9-3.7-2.8-5.3-2.7c-1.6,0.1-3.3,1-5,2.7l-2.7,2.7l15,14.8L142.4,899.4z M127.7,877.2l2.8-2.9c1.6-1.7,2.5-3.2,2.6-4.8
		c0.1-1.5-0.7-3.2-2.5-4.9l-3.4-3.3c-1.6-1.6-3.1-2.5-4.6-2.6c-1.4-0.1-2.8,0.5-4.2,1.9l-3.7,3.8L127.7,877.2z"/>
	<path class="st1" d="M161.8,879.8l-35-34.6l4.9-4.9l33.4,17l-25.4-25.1l3.4-3.5l35,34.6l-4,4.1L137,848.4l28.3,27.9L161.8,879.8z"
		/>
	<path class="st1" d="M181,860.3L152.6,819l5.7-5.7l41.6,27.9L196,845l-8.4-5.6l-8.8,8.9l5.8,8.3L181,860.3z M176.2,844.4l7.5-7.6
		l-23.9-16L176.2,844.4z"/>
	<path class="st1" d="M168.1,810.4l-3.6-3.5l16.6-16.8l3.6,3.5l-6.4,6.5l31.5,31.1L206,835l-31.5-31.1L168.1,810.4z"/>
	<path class="st1" d="M218.7,822l-35-34.6l3.9-3.9l35,34.6L218.7,822z"/>
	<path class="st1" d="M217.8,806.1l-18.1-17.9c-2.8-2.7-4.2-5.5-4.5-8.4c-0.2-2.9,0.9-5.6,3.5-8.3c2.6-2.6,5.4-3.9,8.3-3.7
		c2.9,0.2,5.8,1.6,8.5,4.3l18.1,17.9c2.7,2.7,4.2,5.5,4.4,8.4c0.2,2.9-1,5.7-3.6,8.3c-2.6,2.6-5.3,3.8-8.2,3.6
		C223.3,810.2,220.5,808.8,217.8,806.1z M221.8,802.5c1.6,1.6,3.2,2.5,4.8,2.7c1.6,0.2,3-0.4,4.4-1.8c2.7-2.8,2.4-5.8-0.9-9.2
		l-18.5-18.3c-1.6-1.6-3.2-2.5-4.8-2.7c-1.6-0.2-3,0.4-4.4,1.8c-1.4,1.4-2,2.9-1.8,4.4s1.1,3.1,2.7,4.7L221.8,802.5z"/>
	<path class="st1" d="M245.7,794.8l-35-34.6l4.9-4.9l33.4,17l-25.4-25.1l3.4-3.5l35,34.6l-4,4.1l-37.1-18.9l28.3,27.9L245.7,794.8z"
		/>
	<path class="st1" d="M264.9,775.3L236.5,734l5.7-5.7l41.6,27.9L280,760l-8.4-5.6l-8.8,8.9l5.8,8.3L264.9,775.3z M260.1,759.4
		l7.5-7.6l-23.9-16L260.1,759.4z"/>
	<path class="st1" d="M286.8,753.1l-35-34.6l3.9-3.9l31.5,31.1l9.9-10l3.5,3.5L286.8,753.1z"/>
	<path class="st1" d="M113.4,1048.8l-35-34.6l8.1-8.2c2.6-2.7,5.3-3.9,8.2-3.7c2.8,0.2,5.6,1.6,8.4,4.4l17.7,17.4
		c2.8,2.7,4.2,5.5,4.4,8.3c0.2,2.8-1,5.5-3.6,8.2L113.4,1048.8z M113.7,1041.4l4.2-4.3c2.7-2.8,2.4-5.8-0.9-9.1l-18-17.8
		c-3.3-3.3-6.3-3.5-9.1-0.7l-4.1,4.2L113.7,1041.4z"/>
	<path class="st1" d="M133,1029l-35-34.6l14.2-14.4l3.6,3.5L105.4,994l11.9,11.8l8.4-8.6l3.5,3.5l-8.4,8.6l12.5,12.3l10.4-10.5
		l3.5,3.5L133,1029z"/>
	<path class="st1" d="M149.7,995.2l-18.1-17.9c-2.7-2.7-4.2-5.5-4.5-8.3s0.9-5.6,3.4-8.2c2.6-2.6,5.3-3.8,8.2-3.6
		c2.9,0.2,5.7,1.7,8.4,4.4l3.2,3.1l-3.6,3.7l-3.4-3.3c-3.4-3.3-6.4-3.6-9.1-0.9c-1.4,1.4-1.9,2.8-1.7,4.4c0.2,1.6,1.1,3.1,2.7,4.7
		l18.5,18.3c1.6,1.6,3.2,2.5,4.8,2.7c1.6,0.2,3-0.4,4.4-1.8c2.7-2.7,2.4-5.8-1-9.1l-4.5-4.5l3.6-3.7l4.3,4.3
		c2.7,2.7,4.2,5.5,4.5,8.4c0.3,2.9-0.9,5.6-3.5,8.2c-2.6,2.6-5.3,3.8-8.1,3.6C155.2,999.4,152.4,997.9,149.7,995.2z"/>
	<path class="st1" d="M168.4,976.2l-18.1-17.9c-2.8-2.7-4.2-5.5-4.5-8.4s0.9-5.6,3.5-8.3c2.6-2.6,5.4-3.9,8.3-3.7
		c2.9,0.2,5.8,1.6,8.5,4.3l18.1,17.9c2.7,2.7,4.2,5.5,4.4,8.4c0.2,2.9-1,5.7-3.6,8.3c-2.6,2.6-5.3,3.8-8.2,3.6
		C174,980.3,171.2,978.9,168.4,976.2z M172.4,972.6c1.6,1.6,3.2,2.5,4.8,2.7c1.6,0.2,3-0.4,4.4-1.8c2.7-2.8,2.4-5.8-0.9-9.2
		L162.1,946c-1.6-1.6-3.2-2.5-4.8-2.7s-3,0.4-4.4,1.8c-1.4,1.4-2,2.9-1.8,4.4c0.2,1.6,1.1,3.1,2.7,4.7L172.4,972.6z"/>
	<path class="st1" d="M196.3,964.8l-35-34.6l4.9-4.9l33.4,17l-25.4-25.1l3.4-3.5l35,34.6l-4,4.1l-37.1-18.9l28.3,27.9L196.3,964.8z"
		/>
	<path class="st1" d="M216.6,944.3l-35-34.6l13.7-13.9l3.6,3.5l-9.9,10l12.8,12.6l7.9-8l3.5,3.5l-7.9,8l15.2,15L216.6,944.3z"/>
	<path class="st1" d="M233.4,927.3l-35-34.6l14.2-14.4l3.6,3.5l-10.4,10.5l11.9,11.8l8.4-8.6l3.5,3.5l-8.4,8.6l12.5,12.3l10.4-10.5
		l3.5,3.5L233.4,927.3z"/>
	<path class="st1" d="M251.1,909.3l-35-34.6l7.7-7.8c2.7-2.7,5.3-4,7.9-3.9c2.6,0.1,5.2,1.4,7.9,4l2.9,2.8c3.9,3.8,4.9,7.7,2.9,11.5
		c2-1.1,3.9-1.4,5.8-0.9c1.9,0.5,3.8,1.7,5.8,3.7l5.4,5.4c1.9,1.9,3.6,3.1,4.9,3.5l-3.9,3.9c-1.4-0.6-3.1-1.7-4.9-3.5L253,888
		c-1.9-1.9-3.7-2.8-5.3-2.7c-1.6,0.1-3.3,1-5,2.7l-2.7,2.7l15,14.8L251.1,909.3z M236.5,887.1l2.8-2.9c1.6-1.7,2.5-3.2,2.6-4.8
		c0.1-1.5-0.7-3.2-2.5-4.9l-3.4-3.3c-1.6-1.6-3.1-2.5-4.6-2.6c-1.4-0.1-2.8,0.5-4.2,1.9l-3.7,3.8L236.5,887.1z"/>
	<path class="st1" d="M270.6,889.6l-35-34.6l14.2-14.4l3.6,3.5L243,854.7l11.9,11.8l8.4-8.6l3.5,3.5l-8.4,8.6l12.5,12.3l10.4-10.5
		l3.5,3.5L270.6,889.6z"/>
	<path class="st1" d="M288.3,871.7l-35-34.6l4.9-4.9l33.4,17L266.2,824l3.4-3.5l35,34.6l-4,4.1l-37.1-18.9l28.3,27.9L288.3,871.7z"
		/>
	<path class="st1" d="M299.8,843.1l-18.1-17.9c-2.7-2.7-4.2-5.5-4.5-8.3c-0.3-2.9,0.9-5.6,3.4-8.2c2.6-2.6,5.3-3.8,8.2-3.6
		c2.9,0.2,5.7,1.7,8.4,4.4l3.2,3.1l-3.6,3.7l-3.4-3.3c-3.4-3.3-6.4-3.6-9.1-0.9c-1.4,1.4-1.9,2.8-1.7,4.4c0.2,1.6,1.1,3.1,2.7,4.7
		l18.5,18.3c1.6,1.6,3.2,2.5,4.8,2.7c1.6,0.2,3-0.4,4.4-1.8c2.7-2.7,2.4-5.8-1-9.1l-4.5-4.5l3.6-3.7l4.3,4.3
		c2.7,2.7,4.2,5.5,4.5,8.4c0.3,2.9-0.9,5.6-3.5,8.2c-2.6,2.6-5.3,3.8-8.1,3.6C305.3,847.3,302.5,845.8,299.8,843.1z"/>
	<path class="st1" d="M327.3,832.2l-35-34.6l14.2-14.4l3.6,3.5l-10.4,10.5l11.9,11.8l8.4-8.6l3.5,3.5l-8.4,8.6l12.5,12.3l10.4-10.5
		l3.5,3.5L327.3,832.2z"/>
	<path class="st1" d="M336.1,806.4l-2-2l3.6-3.7l2.2,2.2c3.3,3.3,6.4,3.6,9.1,0.8c2.7-2.7,2.4-5.8-1-9.1c-1-1-2.2-1.8-3.6-2.2
		c-1.3-0.5-2.7-0.7-4.1-0.7c-1.4,0-2.8,0.1-4.3,0.2c-1.5,0.2-3,0.3-4.6,0.4c-1.5,0.1-3.1,0.1-4.5,0c-1.5-0.1-3-0.5-4.6-1.2
		c-1.6-0.7-3-1.7-4.3-3c-2.8-2.7-4.3-5.5-4.5-8.3c-0.3-2.8,0.9-5.5,3.4-8.1c2.6-2.6,5.3-3.8,8.1-3.5c2.8,0.2,5.6,1.7,8.4,4.4l1,0.9
		l-3.6,3.7l-1.1-1.1c-3.3-3.3-6.3-3.6-9-0.9c-2.6,2.7-2.3,5.6,1,8.9c1.1,1,2.3,1.8,3.6,2.3c1.3,0.5,2.7,0.7,4.1,0.7
		c1.4,0,2.8-0.1,4.3-0.3c1.5-0.2,3-0.3,4.6-0.4c1.6-0.1,3.1-0.1,4.6,0c1.5,0.1,3,0.5,4.6,1.2c1.6,0.7,3,1.7,4.3,3
		c2.7,2.7,4.2,5.5,4.4,8.3c0.2,2.9-0.9,5.6-3.5,8.2s-5.3,3.8-8.1,3.6C341.7,810.6,338.9,809.1,336.1,806.4z"/>
	<path class="st0" d="M301.7,961.3l-18.1-17.9c-2.7-2.7-4.2-5.5-4.5-8.3c-0.3-2.9,0.9-5.6,3.4-8.2c2.6-2.6,5.3-3.8,8.2-3.6
		c2.9,0.2,5.7,1.7,8.4,4.4l3,2.9l-3.6,3.7l-3.2-3.2c-3.4-3.3-6.4-3.6-9.2-0.8c-1.3,1.4-1.9,2.8-1.7,4.4c0.2,1.5,1.1,3.1,2.7,4.7
		l18.5,18.3c1.6,1.6,3.2,2.5,4.7,2.7c1.6,0.2,3-0.4,4.3-1.8c2.7-2.8,2.4-5.8-1-9.1l-7-6.9l-3.6,3.6l-3.5-3.4l7.2-7.3l10.3,10.2
		c2.7,2.7,4.2,5.5,4.5,8.4c0.3,2.9-0.9,5.6-3.5,8.2c-2.6,2.6-5.3,3.8-8.1,3.5C307.2,965.5,304.4,964,301.7,961.3z"/>
	<path class="st0" d="M329.3,950.2l-35-34.6l14.2-14.4l3.6,3.5l-10.4,10.5l11.9,11.8l8.4-8.6l3.5,3.5l-8.4,8.6l12.5,12.3l10.4-10.5
		l3.5,3.5L329.3,950.2z"/>
	<path class="st0" d="M347.1,932.3l-35-34.6l4.9-4.9l33.4,17l-25.4-25.1l3.4-3.5l35,34.6l-4,4.1l-37.1-18.9l28.3,27.9L347.1,932.3z"
		/>
	<path class="st0" d="M367.3,911.8l-35-34.6l14.2-14.4l3.6,3.5l-10.4,10.5l11.9,11.8l8.4-8.6l3.5,3.5l-8.4,8.6l12.5,12.3l10.4-10.5
		l3.5,3.5L367.3,911.8z"/>
	<path class="st0" d="M349,860.2l3.9-3.9l36.2,24.5l-25-35.9l3.6-3.7l28.6,41.1l-5.8,5.8L349,860.2z"/>
	<path class="st0" d="M405.7,872.9l-35-34.6l14.2-14.4l3.6,3.5l-10.4,10.5l11.9,11.8l8.4-8.6l3.5,3.5l-8.4,8.6l12.5,12.3l10.4-10.5
		l3.5,3.5L405.7,872.9z"/>
</g>
<g>
	<g>
		<path class="st0" d="M329.5,865.3l8.2,0.9l-2.8,2.8l-9.5,0.4L329.5,865.3z"/>
	</g>
</g>
<g>
	<path class="st1" d="M196.2,879.5l8.2,0.9l-2.8,2.8l-9.5,0.4L196.2,879.5z"/>
</g>
</svg>
