<svg xmlns="http://www.w3.org/2000/svg" xmlns:xlink="http://www.w3.org/1999/xlink" viewBox="0 0 117 72.08"><defs><mask id="a" x="0" y="0" width="117" height="72.08" maskUnits="userSpaceOnUse"><g transform="translate(-453.5 -475.96)"><path d="M453.5,476h117V548h-117Z" style="fill:#fff"/></g></mask></defs><title>World Economic Forum logo</title><g style="mask:url(#a)"><path d="M547.54,538l0,0-.32-.38a37.32,37.32,0,0,1-49.46-2.21,35.26,35.26,0,0,1-4.17-45.81,36.31,36.31,0,0,1,17-12.91l-.27-.71A37.11,37.11,0,0,0,493,489.14a35.73,35.73,0,0,0,4.17,46.78c.67.65,1.36,1.26,2.07,1.85l-.91,1.06a39.52,39.52,0,0,0,50.26.35Z" transform="translate(-453.5 -475.96)" style="fill:#008cf0"/><path d="M493.92,488a6.14,6.14,0,0,1-.27-1.77,4.81,4.81,0,0,1,5-5,5.9,5.9,0,0,1,1.86.27,12.65,12.65,0,0,1,1.77-1.24,7.2,7.2,0,0,0-3.63-1,7.11,7.11,0,0,0-7.18,7,7.56,7.56,0,0,0,1.06,3.71,5,5,0,0,1,.53-.71A15.18,15.18,0,0,1,493.92,488Z" transform="translate(-453.5 -475.96)"/><path d="M503.49,481.09a11.27,11.27,0,0,0-1.68,1.15,5,5,0,0,1,1.77,4,4.84,4.84,0,0,1-5,5,4.76,4.76,0,0,1-3.9-1.86c-.18.27-.36.44-.53.71a7.54,7.54,0,0,0-.71,1.06,7.48,7.48,0,0,0,5.14,2,7,7,0,0,0,7.18-6.9A6.81,6.81,0,0,0,503.49,481.09Z" transform="translate(-453.5 -475.96)"/><path d="M490.82,504.26a5,5,0,0,1-3.1,4.69v2.12a7,7,0,0,0,5.32-6.81,7.15,7.15,0,0,0-3.28-5.84c-.27.71-.44,1.33-.71,1.95A5,5,0,0,1,490.82,504.26Z" transform="translate(-453.5 -475.96)"/><path d="M486.3,509.3h-.44a4.93,4.93,0,0,1-5.05-5,4.81,4.81,0,0,1,5.05-5,4.51,4.51,0,0,1,1.95.35,15.31,15.31,0,0,1,.62-1.86,8.25,8.25,0,0,0-2.57-.44,6.95,6.95,0,1,0,0,13.88h.44c0-.35-.09-.8-.09-1.15S486.3,509.57,486.3,509.3Z" transform="translate(-453.5 -475.96)"/><path d="M491,517.53a4.78,4.78,0,0,1,5,5,4.87,4.87,0,0,1-3.63,4.86c.35.62.71,1.15,1.06,1.77a7,7,0,0,0,4.79-6.63,7.09,7.09,0,0,0-7.18-6.9,6.92,6.92,0,0,0-2.75.53,14.8,14.8,0,0,0,.35,1.95A5.29,5.29,0,0,1,491,517.53Z" transform="translate(-453.5 -475.96)"/><path d="M486,522.48a5.17,5.17,0,0,1,1.33-3.54,18.08,18.08,0,0,1-.44-2.12,6.88,6.88,0,0,0-3.1,5.66,7,7,0,0,0,7.18,7,3.05,3.05,0,0,0,.89-.09c-.36-.62-.8-1.24-1.15-1.86A4.86,4.86,0,0,1,486,522.48Z" transform="translate(-453.5 -475.96)"/><path d="M525.83,515.85v8c0,1.86-.62,3.63-3,3.63s-3-1.77-3-3.63v-8h-2.22v8.49a5.23,5.23,0,0,0,10.46,0v-8.49Z" transform="translate(-453.5 -475.96)"/><path d="M527.6,491h6v1.86h-8.24V479.5h2.22Z" transform="translate(-453.5 -475.96)"/><path d="M453.5,497.63h7.8v1.94h-5.58v3.18h5.5v1.95h-5.5V509h5.58V511h-7.8Z" transform="translate(-453.5 -475.96)"/><path d="M497.55,496.92l9.22,9.46v-8.75H509v13.88l-9.22-9.29V511h-2.22Z" transform="translate(-453.5 -475.96)"/><path d="M552.51,497.63h2.22V511h-2.22Z" transform="translate(-453.5 -475.96)"/><path d="M475,517.79V521h4.79v1.86H475v6.37h-2.22V515.85H480v1.95Z" transform="translate(-453.5 -475.96)"/><path d="M483.9,487.81H484l2.13-8.31h2.13l-3.72,13.88-4.7-10-4.7,10-3.81-13.88h2.22l2.13,8.31,4.17-8.58Z" transform="translate(-453.5 -475.96)"/><path d="M535.13,502.67H535L532.92,511h-2.13l3.72-13.88,4.7,10.08,4.7-10.08L547.72,511H545.5l-2.13-8.31h-.09l-4.08,8.67Z" transform="translate(-453.5 -475.96)"/><path d="M536.29,520.89l-2.13,8.31h-2.22l3.72-13.88,4.79,10,4.7-10,3.72,13.88h-2.22l-2.13-8.31-4.08,8.58Z" transform="translate(-453.5 -475.96)"/><path d="M506.5,515.85a7.54,7.54,0,0,1,3.72.62,3.71,3.71,0,0,1,1.86,3.18,3.6,3.6,0,0,1-3.28,3.71l4.25,5.84h-2.48l-4-5.66h-1.51v5.66h-2.22V515.85Zm-1.42,5.93h1c1.77,0,3.9.09,3.9-2s-2.22-2-4-2h-.89Z" transform="translate(-453.5 -475.96)"/><path d="M514,479.5a7.54,7.54,0,0,1,3.72.62,3.63,3.63,0,0,1,1.77,3.18,3.54,3.54,0,0,1-3.28,3.71l4.34,5.84h-2.48L514,487.19h-1.42v5.66H510.4V479.5Zm-1.42,5.93h1c1.77,0,3.81.09,3.81-2s-2.22-2-3.9-2h-.89Z" transform="translate(-453.5 -475.96)"/><path d="M539.74,491H541c2.93,0,5.67-1.06,5.67-4.86s-2.75-4.78-5.67-4.78h-1.24Zm-2.22-11.5h3.63c4.25,0,7.71,2,7.71,6.63s-3.37,6.72-7.71,6.72h-3.63Z" transform="translate(-453.5 -475.96)"/><path d="M569.35,508.68a4.51,4.51,0,0,1-2.48.62,5,5,0,0,1,0-10,5.41,5.41,0,0,1,2.48.53l1.06-1.59a7.51,7.51,0,0,0-3.55-.88,7.11,7.11,0,0,0-7.18,7,7,7,0,0,0,7.18,6.9,7.14,7.14,0,0,0,3.63-.88Z" transform="translate(-453.5 -475.96)"/><path d="M475.13,508.68a4.4,4.4,0,0,1-2.39.62,5,5,0,1,1,0-10,5.29,5.29,0,0,1,2.39.53l1.15-1.59a8.09,8.09,0,0,0-3.54-.88,7,7,0,0,0-7.18,7,7.26,7.26,0,0,0,10.72,6Z" transform="translate(-453.5 -475.96)"/><path d="M525.74,504.35a5,5,0,1,0-10,0,5,5,0,0,0,10,0Zm2.22,0a7.18,7.18,0,1,1-7.18-7A7.11,7.11,0,0,1,528,504.35Z" transform="translate(-453.5 -475.96)"/></g></svg>