<?xml version="1.0" encoding="utf-8"?>
<!-- Generator: Adobe Illustrator 26.0.1, SVG Export Plug-In . SVG Version: 6.00 Build 0)  -->
<svg version="1.1" xmlns="http://www.w3.org/2000/svg" xmlns:xlink="http://www.w3.org/1999/xlink" x="0px" y="0px"
	 viewBox="0 0 1080 487.7" style="enable-background:new 0 0 1080 487.7;" xml:space="preserve">
<style type="text/css">
	.st0{fill:#9C9C9C;}
	.st1{fill:#2D4492;}
</style>
<g id="Слой_1">
</g>
<g id="Слой_2">
	<path class="st0" d="M279,275.9c0,0,181.6,52.3,324.5-10.1c12.4-5.4,19.1-2.5,38.3-8.6c28.4-9,14.1-26.5,209.4-4.6
		c0,0-195.3-27-222.7-2.1c-17.3,15.7-18.8,97.3,7.5,185.6c3.5,11.7-23.9-89.5-64.3-111.6C507,289.1,484.9,330.8,279,275.9z"/>
	<path class="st0" d="M690.2,240.9c0,0-46.4-0.9-58.5-26.1c-12.2-25.2,17.7-85.3,52.8-142.1c0,0-48.1,83.7-41,129.9
		C650.8,249.6,690.2,240.9,690.2,240.9z"/>
	<path class="st0" d="M591.2,201.7c-47.1-9.9-163-79.6-179.9-97.6c0,0,78.8,62.5,168,74.3c7,0.9,14.1,0.4,21-1.4
		c28.5-7.5,110.9-31,161.6-66.1c0,0-3.4,6.3-80.6,46.8c-30.7,16.1-77.8,37.2-87.5,44.7c0,0-1.5,7.4-2.8,15.5c-0.3,2-2.1,3.5-4.1,3.5
		l-523.9,1.8c0,0,232,8.6,348.8-2.7c39-3.8,43.6-14.4,47.5-22.7c5-10.5,2.7-23.3-0.7-30.4c-7.9-16.4-26.1-53-76.3-83.3
		c85.6,51.1,119.3,134.8,176.8,158.1c23.4,9.5,41.6,5.3,75.5,8.5C634.5,250.6,651.6,214.4,591.2,201.7z"/>
	<g>
		<path class="st1" d="M830.7,245.2L787.2,196c-3.6-3.6,1.7-6.5,5.8-6.5c6.3,0,21.1-2.5,21.1-20.5c0-5.7-1.7-10-5.1-13.2
			c-7.8-7.3-22-6.6-22.1-6.6l-17.1,0v92.7h-10.3V138.9h27.1c0.4,0,18.4-1,29.4,9.4c5.5,5.2,8.3,12.2,8.3,20.7
			c0,17.6-10.5,26.4-22,29.5l36,39.9L830.7,245.2z"/>
	</g>
	<g>
		<path class="st1" d="M730.3,241.8c-34.3,0-62.2-22.9-62.2-51.1s27.9-51,62.2-51V150c-28.6,0-51.9,18.3-51.9,40.8
			s23.3,40.8,51.9,40.8V241.8z"/>
	</g>
	<g>
		<path class="st1" d="M915.6,241.8c-34.3,0-62.2-22.9-62.2-51.1s27.9-51,62.2-51V150c-28.6,0-51.9,18.3-51.9,40.8
			s23.3,40.8,51.9,40.8V241.8z"/>
	</g>
	<g>
		<path class="st1" d="M1022.4,241.8h-5.1c-41,0-74.3-22.9-74.3-51.1s33.3-51,74.3-51V150c-35.3,0-64,18.3-64,40.8
			c0,21.4,26,39,58.9,40.6v-38.2h10.3V241.8z"/>
	</g>
</g>
</svg>
