<svg width="288" height="75" viewBox="0 0 288 75" fill="none" xmlns="http://www.w3.org/2000/svg">
<path d="M38.1583 74.9383C32.425 74.9383 27.2583 74.055 22.6583 72.2883C18.0583 70.4883 14.1416 67.955 10.9083 64.6883C7.67498 61.3883 5.19165 57.4883 3.45831 52.9883C1.75831 48.455 0.908313 43.4717 0.908313 38.0383C0.908313 30.8717 2.35831 24.505 5.25831 18.9383C8.19165 13.3383 12.3416 8.95499 17.7083 5.78832C23.075 2.58832 29.4583 0.988318 36.8583 0.988318C39.1583 0.988318 41.425 1.13832 43.6583 1.43832C45.925 1.73832 48.075 2.15499 50.1083 2.68832C52.175 3.22165 54.075 3.82165 55.8083 4.48832C57.575 5.12166 59.125 5.80499 60.4583 6.53832L59.3583 19.6383C56.7916 18.0383 54.2916 16.755 51.8583 15.7883C49.425 14.7883 47.075 14.0717 44.8083 13.6383C42.575 13.205 40.4083 12.9883 38.3083 12.9883C33.9083 12.9883 29.975 13.9717 26.5083 15.9383C23.075 17.905 20.375 20.755 18.4083 24.4883C16.4416 28.2217 15.4583 32.7383 15.4583 38.0383C15.4583 41.4717 15.9583 44.7217 16.9583 47.7883C17.9916 50.8217 19.525 53.505 21.5583 55.8383C23.5916 58.1717 26.125 60.005 29.1583 61.3383C32.225 62.6383 35.7916 63.2883 39.8583 63.2883C41.4583 63.2883 43.075 63.1883 44.7083 62.9883C46.3416 62.755 47.975 62.405 49.6083 61.9383C51.2416 61.4717 52.8583 60.8383 54.4583 60.0383C56.0583 59.2383 57.6416 58.2717 59.2083 57.1383L60.0583 70.0883C58.6583 70.9217 57.0916 71.655 55.3583 72.2883C53.625 72.8883 51.8083 73.3883 49.9083 73.7883C48.0416 74.1883 46.1083 74.4717 44.1083 74.6383C42.1083 74.8383 40.125 74.9383 38.1583 74.9383ZM79.8177 73.6883C79.8177 69.8217 79.8177 66.0717 79.8177 62.4383C79.8177 58.805 79.8177 54.7717 79.8177 50.3383V26.1883C79.8177 21.655 79.8177 17.5383 79.8177 13.8383C79.8177 10.1383 79.8177 6.32165 79.8177 2.38832C81.8844 2.38832 84.3177 2.38832 87.1177 2.38832C89.9177 2.38832 92.9177 2.38832 96.1177 2.38832C99.351 2.38832 102.668 2.38832 106.068 2.38832C111.734 2.38832 116.518 3.03832 120.418 4.33832C124.318 5.60499 127.251 7.70499 129.218 10.6383C131.218 13.5717 132.218 17.5383 132.218 22.5383C132.218 26.5717 131.418 30.2383 129.818 33.5383C128.251 36.8383 125.684 39.4717 122.118 41.4383C118.584 43.3717 113.884 44.355 108.018 44.3883L113.168 38.7883L123.418 53.0383C125.018 55.2383 126.701 57.5883 128.468 60.0883C130.268 62.5883 132.018 65.0217 133.718 67.3883C135.451 69.755 136.968 71.855 138.268 73.6883H122.268C120.301 70.8217 118.401 68.0717 116.568 65.4383C114.768 62.7717 113.001 60.1883 111.268 57.6883L99.1677 40.0383L107.568 47.0383H91.0177V36.1883H103.518C106.651 36.1883 109.268 35.8217 111.368 35.0883C113.501 34.3217 115.101 33.0717 116.168 31.3383C117.234 29.5717 117.768 27.1883 117.768 24.1883C117.768 21.855 117.401 19.9883 116.668 18.5883C115.968 17.1883 115.018 16.1217 113.818 15.3883C112.618 14.655 111.301 14.1717 109.868 13.9383C108.468 13.705 107.051 13.5883 105.618 13.5883H83.6677L93.5177 4.53832C93.5177 8.67165 93.5177 12.5883 93.5177 16.2883C93.5177 19.955 93.5177 23.9883 93.5177 28.3883V50.3383C93.5177 54.7717 93.5177 58.805 93.5177 62.4383C93.5177 66.0717 93.5177 69.8217 93.5177 73.6883H79.8177ZM187.022 74.9383C181.288 74.9383 176.122 74.055 171.522 72.2883C166.922 70.4883 163.005 67.955 159.772 64.6883C156.538 61.3883 154.055 57.4883 152.322 52.9883C150.622 48.455 149.772 43.4717 149.772 38.0383C149.772 30.8717 151.222 24.505 154.122 18.9383C157.055 13.3383 161.205 8.95499 166.572 5.78832C171.938 2.58832 178.322 0.988318 185.722 0.988318C188.022 0.988318 190.288 1.13832 192.522 1.43832C194.788 1.73832 196.938 2.15499 198.972 2.68832C201.038 3.22165 202.938 3.82165 204.672 4.48832C206.438 5.12166 207.988 5.80499 209.322 6.53832L208.222 19.6383C205.655 18.0383 203.155 16.755 200.722 15.7883C198.288 14.7883 195.938 14.0717 193.672 13.6383C191.438 13.205 189.272 12.9883 187.172 12.9883C182.772 12.9883 178.838 13.9717 175.372 15.9383C171.938 17.905 169.238 20.755 167.272 24.4883C165.305 28.2217 164.322 32.7383 164.322 38.0383C164.322 41.4717 164.822 44.7217 165.822 47.7883C166.855 50.8217 168.388 53.505 170.422 55.8383C172.455 58.1717 174.988 60.005 178.022 61.3383C181.088 62.6383 184.655 63.2883 188.722 63.2883C190.322 63.2883 191.938 63.1883 193.572 62.9883C195.205 62.755 196.838 62.405 198.472 61.9383C200.105 61.4717 201.722 60.8383 203.322 60.0383C204.922 59.2383 206.505 58.2717 208.072 57.1383L208.922 70.0883C207.522 70.9217 205.955 71.655 204.222 72.2883C202.488 72.8883 200.672 73.3883 198.772 73.7883C196.905 74.1883 194.972 74.4717 192.972 74.6383C190.972 74.8383 188.988 74.9383 187.022 74.9383ZM263.431 74.8883C257.264 74.8883 251.798 73.9717 247.031 72.1383C242.298 70.305 238.298 67.7383 235.031 64.4383C231.798 61.1383 229.331 57.2383 227.631 52.7383C225.964 48.2383 225.131 43.3217 225.131 37.9883C225.131 30.755 226.614 24.355 229.581 18.7883C232.548 13.2217 236.781 8.87165 242.281 5.73832C247.781 2.57165 254.348 0.988318 261.981 0.988318C264.481 0.988318 266.914 1.15498 269.281 1.48832C271.648 1.78832 273.881 2.22165 275.981 2.78832C278.114 3.32165 280.081 3.92165 281.881 4.58832C283.714 5.22165 285.298 5.88832 286.631 6.58832L285.531 19.6383C282.764 18.0717 280.064 16.805 277.431 15.8383C274.831 14.8383 272.314 14.1217 269.881 13.6883C267.481 13.2217 265.198 12.9883 263.031 12.9883C259.664 12.9883 256.548 13.5383 253.681 14.6383C250.848 15.705 248.364 17.3217 246.231 19.4883C244.131 21.6217 242.498 24.255 241.331 27.3883C240.164 30.4883 239.581 34.0383 239.581 38.0383C239.581 41.5717 240.081 44.8883 241.081 47.9883C242.081 51.055 243.598 53.755 245.631 56.0883C247.664 58.4217 250.264 60.255 253.431 61.5883C256.598 62.8883 260.314 63.5383 264.581 63.5383C266.581 63.5383 268.514 63.455 270.381 63.2883C272.248 63.0883 274.064 62.7717 275.831 62.3383C277.598 61.905 279.331 61.3717 281.031 60.7383C282.731 60.0717 284.431 59.2717 286.131 58.3383L287.781 70.9383C286.648 71.4383 285.198 71.9217 283.431 72.3883C281.698 72.855 279.748 73.2883 277.581 73.6883C275.414 74.055 273.131 74.3383 270.731 74.5383C268.331 74.7717 265.898 74.8883 263.431 74.8883ZM274.631 71.1883C274.631 67.555 274.631 64.3717 274.631 61.6383C274.631 58.8717 274.631 56.105 274.631 53.3383C274.631 50.105 274.631 47.255 274.631 44.7883C274.631 42.2883 274.631 39.755 274.631 37.1883H287.781C287.781 39.755 287.781 42.2883 287.781 44.7883C287.781 47.255 287.781 50.105 287.781 53.3383C287.781 56.105 287.781 58.855 287.781 61.5883C287.781 64.2883 287.781 67.405 287.781 70.9383L274.631 71.1883Z" fill="#233B8E"/>
</svg>
