<svg width="830" height="410" viewBox="0 0 830 410" fill="none" xmlns="http://www.w3.org/2000/svg">
<path d="M29 275.9C29 275.9 210.6 328.2 353.5 265.8C365.9 260.4 372.6 263.3 391.8 257.2C420.2 248.2 405.9 230.7 601.2 252.6C601.2 252.6 405.9 225.6 378.5 250.5C361.2 266.2 359.7 347.8 386 436.1C389.5 447.8 362.1 346.6 321.7 324.5C257 289.1 234.9 330.8 29 275.9Z" fill="#9C9C9C"/>
<path d="M440.2 240.9C440.2 240.9 393.8 240 381.7 214.8C369.5 189.6 399.4 129.5 434.5 72.7C434.5 72.7 386.4 156.4 393.5 202.6C400.8 249.6 440.2 240.9 440.2 240.9Z" fill="#9C9C9C"/>
<path d="M341.2 201.7C294.1 191.8 178.2 122.1 161.3 104.1C161.3 104.1 240.1 166.6 329.3 178.4C336.3 179.3 343.4 178.8 350.3 177C378.8 169.5 461.2 146 511.9 110.9C511.9 110.9 508.5 117.2 431.3 157.7C400.6 173.8 353.5 194.9 343.8 202.4C343.8 202.4 342.3 209.8 341 217.9C340.7 219.9 338.9 221.4 336.9 221.4L-187 223.2C-187 223.2 45 231.8 161.8 220.5C200.8 216.7 205.4 206.1 209.3 197.8C214.3 187.3 212 174.5 208.6 167.4C200.7 151 182.5 114.4 132.3 84.1C217.9 135.2 251.6 218.9 309.1 242.2C332.5 251.7 350.7 247.5 384.6 250.7C384.5 250.6 401.6 214.4 341.2 201.7Z" fill="#9C9C9C"/>
<path d="M580.7 245.2L537.2 196C533.6 192.4 538.9 189.5 543 189.5C549.3 189.5 564.1 187 564.1 169C564.1 163.3 562.4 159 559 155.8C551.2 148.5 537 149.2 536.9 149.2H519.8V241.9H509.5V138.9H536.6C537 138.9 555 137.9 566 148.3C571.5 153.5 574.3 160.5 574.3 169C574.3 186.6 563.8 195.4 552.3 198.5L588.3 238.4L580.7 245.2Z" fill="#2D4492"/>
<path d="M480.3 241.8C446 241.8 418.1 218.9 418.1 190.7C418.1 162.5 446 139.7 480.3 139.7V150C451.7 150 428.4 168.3 428.4 190.8C428.4 213.3 451.7 231.6 480.3 231.6V241.8Z" fill="#2D4492"/>
<path d="M665.6 241.8C631.3 241.8 603.4 218.9 603.4 190.7C603.4 162.5 631.3 139.7 665.6 139.7V150C637 150 613.7 168.3 613.7 190.8C613.7 213.3 637 231.6 665.6 231.6V241.8Z" fill="#2D4492"/>
<path d="M772.4 241.8H767.3C726.3 241.8 693 218.9 693 190.7C693 162.5 726.3 139.7 767.3 139.7V150C732 150 703.3 168.3 703.3 190.8C703.3 212.2 729.3 229.8 762.2 231.4V193.2H772.5V241.8H772.4Z" fill="#2D4492"/>
</svg>
