<svg width="128" height="128" viewBox="0 0 128 128" fill="none" xmlns="http://www.w3.org/2000/svg">
<path d="M110.06 96H17.94C16.3695 95.9844 14.8677 95.3535 13.7571 94.2429C12.6465 93.1323 12.0156 91.6305 12 90.06V25.94C12.0156 24.3695 12.6465 22.8677 13.7571 21.7571C14.8677 20.6465 16.3695 20.0156 17.94 20H110.05C111.622 20.013 113.127 20.6427 114.239 21.7536C115.352 22.8645 115.984 24.3677 116 25.94V90.06C115.984 91.6305 115.354 93.1323 114.243 94.2429C113.132 95.3535 111.631 95.9844 110.06 96ZM17.94 24C17.4303 24.0151 16.9455 24.2243 16.5849 24.5849C16.2243 24.9455 16.0151 25.4303 16 25.94V90.06C16.0151 90.5697 16.2243 91.0545 16.5849 91.4151C16.9455 91.7757 17.4303 91.9849 17.94 92H110.05C110.562 91.9874 111.049 91.7793 111.411 91.4184C111.774 91.0576 111.985 90.5714 112 90.06V25.94C111.985 25.4303 111.776 24.9455 111.415 24.5849C111.054 24.2243 110.57 24.0151 110.06 24H17.94Z" fill="#233B8E"/>
<path d="M119.5 104H8.5C3.64 104 0 99 0 94.5V94C0 93.4696 0.210714 92.9609 0.585786 92.5858C0.960859 92.2107 1.46957 92 2 92H126C126.53 92 127.039 92.2107 127.414 92.5858C127.789 92.9609 128 93.4696 128 94V94.5C128 99 124.36 104 119.5 104ZM4.23 96C4.83 98 6.56 100 8.5 100H119.5C121.45 100 123.17 98 123.77 96H4.23Z" fill="#233B8E"/>
</svg>
