<svg width="20" height="20" viewBox="0 0 20 20" fill="none" xmlns="http://www.w3.org/2000/svg">
<rect width="20" height="20" rx="2" fill="white"/>
<g clip-path="url(#clip0_202_75)">
<path d="M15.4425 8.0925H15.0641V6.325C15.0612 6.25439 15.0312 6.18762 14.9802 6.13868C14.9292 6.08975 14.8613 6.06244 14.7906 6.0625H14.1934V5.625C14.1909 5.56273 14.1669 5.50325 14.1256 5.45656L14.1125 5.44563L12.3625 3.69563C12.3184 3.64292 12.2558 3.60923 12.1875 3.60156H6.08C6.00748 3.60156 5.93793 3.63037 5.88665 3.68165C5.83537 3.73293 5.80656 3.80248 5.80656 3.875V6.0625H5.20937C5.13871 6.06244 5.07076 6.08975 5.01979 6.13868C4.96881 6.18762 4.93876 6.25439 4.93593 6.325V8.0925H4.5575C4.3111 8.09308 4.07497 8.19121 3.90074 8.36544C3.72652 8.53966 3.62839 8.7758 3.62781 9.02219V14.2438C3.62839 14.4901 3.72652 14.7263 3.90074 14.9005C4.07497 15.0747 4.3111 15.1729 4.5575 15.1734H5.80656V16.125C5.80656 16.1975 5.83537 16.2671 5.88665 16.3183C5.93793 16.3696 6.00748 16.3984 6.08 16.3984H13.92C13.9925 16.3984 14.0621 16.3696 14.1133 16.3183C14.1646 16.2671 14.1934 16.1975 14.1934 16.125V15.1734H15.4425C15.6889 15.1729 15.925 15.0747 16.0992 14.9005C16.2735 14.7263 16.3716 14.4901 16.3722 14.2438V9.02219C16.3716 8.7758 16.2735 8.53966 16.0992 8.36544C15.925 8.19121 15.6889 8.09308 15.4425 8.0925ZM14.5172 6.59844V8.0925H14.1934V6.59844H14.5172ZM12.4522 4.53125L13.2594 5.33844H12.4522V4.53125ZM6.35343 4.14844H11.9053V5.625C11.9061 5.661 11.9142 5.69648 11.9289 5.72936C11.9435 5.76224 11.9646 5.79186 11.9909 5.8165C12.0172 5.84114 12.0481 5.8603 12.0818 5.87287C12.1156 5.88543 12.1515 5.89115 12.1875 5.88969H13.6553V8.0925H6.35343V4.14844ZM5.47843 6.59844H5.80218V8.0925H5.48281L5.47843 6.59844ZM13.6422 15.8516H6.35343V11.9141H13.6466L13.6422 15.8516ZM15.8297 14.2438C15.8291 14.3451 15.7886 14.4421 15.7169 14.5138C15.6453 14.5855 15.5482 14.626 15.4469 14.6266H14.1934V11.9075H14.7906C14.8631 11.9075 14.9327 11.8787 14.984 11.8274C15.0352 11.7761 15.0641 11.7066 15.0641 11.6341C15.0641 11.5615 15.0352 11.492 14.984 11.4407C14.9327 11.3894 14.8631 11.3606 14.7906 11.3606H5.20937C5.13685 11.3606 5.0673 11.3894 5.01602 11.4407C4.96474 11.492 4.93593 11.5615 4.93593 11.6341C4.93593 11.7066 4.96474 11.7761 5.01602 11.8274C5.0673 11.8787 5.13685 11.9075 5.20937 11.9075H5.80656V14.6266H4.5575C4.45614 14.626 4.35911 14.5855 4.28744 14.5138C4.21577 14.4421 4.17526 14.3451 4.17468 14.2438V9.02219C4.17526 8.92084 4.21577 8.8238 4.28744 8.75213C4.35911 8.68047 4.45614 8.63995 4.5575 8.63938H15.4425C15.5438 8.63995 15.6409 8.68047 15.7126 8.75213C15.7842 8.8238 15.8247 8.92084 15.8253 9.02219L15.8297 14.2438Z" fill="#1D3785"/>
</g>
<defs>
<clipPath id="clip0_202_75">
<rect width="14" height="14" fill="white" transform="translate(3 3)"/>
</clipPath>
</defs>
</svg>
