<svg width="164" height="164" viewBox="0 0 164 164" fill="none" xmlns="http://www.w3.org/2000/svg">
<g clip-path="url(#clip0_149_92)">
<path fill-rule="evenodd" clip-rule="evenodd" d="M147.243 163.838H16.5946C11.6429 163.838 7.61376 159.809 7.61376 154.856V79.8201C7.61376 74.8675 11.6429 70.8384 16.5946 70.8384H41.3126C43.8403 70.8384 43.8403 74.6784 41.3126 74.6784H16.5946C13.7597 74.6784 11.4538 76.9853 11.4538 79.8201V154.856C11.4538 157.691 13.7597 159.997 16.5946 159.997H147.243C150.079 159.997 152.385 157.691 152.385 154.856V79.8201C152.385 76.9853 150.079 74.6784 147.244 74.6784H122.526C119.998 74.6784 119.999 70.8384 122.526 70.8384H147.243C152.196 70.8384 156.226 74.8665 156.226 79.8201V154.856C156.226 159.808 152.196 163.838 147.243 163.838Z" fill="#233B8E"/>
<path fill-rule="evenodd" clip-rule="evenodd" d="M122.526 94.3238C121.466 94.3238 120.606 93.4627 120.606 92.4038V3.84095H43.2336V92.4029C43.2336 94.9305 39.3936 94.9296 39.3936 92.4029V1.92095C39.3936 0.861106 40.2538 0.000946045 41.3136 0.000946045H122.526C123.586 0.000946045 124.446 0.861106 124.446 1.92095V92.4029C124.447 93.4627 123.586 94.3238 122.526 94.3238Z" fill="#233B8E"/>
<path fill-rule="evenodd" clip-rule="evenodd" d="M25.8758 74.6813C24.7037 74.6813 23.7936 73.6234 23.976 72.4627L29.6246 36.4925C29.7715 35.5594 30.575 34.871 31.5206 34.871H41.3107C43.8384 34.871 43.8384 38.711 41.3107 38.711H33.1613L27.767 73.0589C27.6202 74.0054 26.8042 74.6803 25.8749 74.6822L25.8758 74.6813Z" fill="#233B8E"/>
<path fill-rule="evenodd" clip-rule="evenodd" d="M131.58 94.3238H32.2579C29.7302 94.3238 29.7302 90.4838 32.2579 90.4838H131.58C134.107 90.4838 134.107 94.3238 131.58 94.3238Z" fill="#233B8E"/>
<path fill-rule="evenodd" clip-rule="evenodd" d="M116.457 163.838C115.397 163.838 114.537 162.977 114.537 161.918V138.525C114.537 134.838 111.539 131.839 107.85 131.839H55.9882C52.3018 131.839 49.3018 134.837 49.3018 138.525V161.918C49.3018 164.446 45.4618 164.445 45.4618 161.918V138.525C45.4618 132.72 50.185 127.997 55.9882 127.997H107.85C113.655 127.997 118.379 132.72 118.379 138.525V161.918C118.379 162.978 117.516 163.838 116.457 163.838Z" fill="#233B8E"/>
<path fill-rule="evenodd" clip-rule="evenodd" d="M137.963 74.6813C137.034 74.6813 136.216 74.0054 136.068 73.0589L130.673 38.711H122.526C119.998 38.711 119.999 34.871 122.526 34.871H132.316C133.261 34.871 134.067 35.5594 134.213 36.4925L139.862 72.4627C140.044 73.6234 139.133 74.6822 137.963 74.6822V74.6813Z" fill="#233B8E"/>
<path fill-rule="evenodd" clip-rule="evenodd" d="M103.326 28.7837H60.5126C57.985 28.7837 57.985 24.9437 60.5126 24.9437H103.326C105.853 24.9437 105.853 28.7837 103.326 28.7837Z" fill="#233B8E"/>
<path fill-rule="evenodd" clip-rule="evenodd" d="M103.326 49.0819H60.5126C57.985 49.0819 57.985 45.2419 60.5126 45.2419H103.326C105.853 45.2419 105.853 49.0819 103.326 49.0819Z" fill="#233B8E"/>
<path fill-rule="evenodd" clip-rule="evenodd" d="M103.326 69.3801H60.5126C57.985 69.3801 57.985 65.5401 60.5126 65.5401H103.326C105.853 65.5401 105.853 69.3801 103.326 69.3801Z" fill="#233B8E"/>
<path fill-rule="evenodd" clip-rule="evenodd" d="M138.543 113.532C135.843 113.532 136.623 109.467 136.623 105.653C136.623 103.125 140.463 103.126 140.463 105.653C140.463 109.468 141.244 113.532 138.543 113.532Z" fill="#233B8E"/>
<path fill-rule="evenodd" clip-rule="evenodd" d="M124.42 113.532C121.719 113.532 122.5 109.467 122.5 105.653C122.5 103.125 126.34 103.126 126.34 105.653C126.34 109.467 127.12 113.532 124.42 113.532Z" fill="#233B8E"/>
<path fill-rule="evenodd" clip-rule="evenodd" d="M110.294 113.532C107.594 113.532 108.374 109.467 108.374 105.653C108.374 103.125 112.214 103.126 112.214 105.653C112.214 109.47 112.995 113.532 110.294 113.532Z" fill="#233B8E"/>
<path fill-rule="evenodd" clip-rule="evenodd" d="M28.4573 150.741C23.6122 150.741 19.6704 146.798 19.6704 141.953C19.6704 137.108 23.6131 133.165 28.4573 133.165C33.3005 133.165 37.2432 137.108 37.2432 141.953C37.2432 146.798 33.3014 150.741 28.4573 150.741ZM28.4573 137.006C21.9466 137.006 21.9475 146.9 28.4573 146.9C34.967 146.9 34.968 137.006 28.4573 137.006Z" fill="#233B8E"/>
</g>
<defs>
<clipPath id="clip0_149_92">
<rect width="163.839" height="163.839" fill="white"/>
</clipPath>
</defs>
</svg>
