<svg width="31" height="31" viewBox="0 0 31 31" fill="none" xmlns="http://www.w3.org/2000/svg">
<path d="M25.7624 5.04993C23.6888 3.10132 21.1038 1.78282 18.3091 1.24835C15.5144 0.713872 12.6254 0.985485 9.97921 2.03147C7.33306 3.07746 5.03902 4.85467 3.3649 7.15562C1.69078 9.45656 0.705647 12.1863 0.52452 15.0262C0.386898 17.0747 0.674567 19.1296 1.36944 21.0616C2.06431 22.9935 3.15135 24.7608 4.56221 26.2523C5.96689 27.7425 7.66072 28.9305 9.54015 29.7436C11.4196 30.5567 13.4451 30.9779 15.4928 30.9814C15.7062 30.9814 15.9108 30.8966 16.0617 30.7457C16.2126 30.5948 16.2974 30.3902 16.2974 30.1768C16.2974 29.9634 16.2126 29.7587 16.0617 29.6078C15.9108 29.4569 15.7062 29.3721 15.4928 29.3721C12.0158 29.3723 8.67509 28.0196 6.17742 25.6004C3.67974 23.1812 2.22102 19.8852 2.10983 16.4096C1.99864 12.934 3.24371 9.5514 5.58165 6.97747C7.91959 4.40353 11.167 2.84012 14.6369 2.61795C16.4636 2.50113 18.2948 2.76007 20.0174 3.3788C21.7401 3.99752 23.3176 4.96289 24.6525 6.21527C25.9875 7.46765 27.0516 8.98045 27.779 10.6602C28.5064 12.34 28.8818 14.1511 28.8819 15.9817C28.8884 18.0923 28.3907 20.1739 27.4302 22.0531C27.0765 22.7087 26.4835 23.2026 25.7747 23.4318C25.066 23.6611 24.2961 23.608 23.6256 23.2837L23.1989 23.0816C23.4408 22.8385 23.6652 22.6061 23.8291 22.4303C23.8794 22.3761 23.9177 22.3119 23.9414 22.2418C23.9652 22.1717 23.9738 22.0974 23.9667 22.0238C23.9597 21.9501 23.9371 21.8788 23.9006 21.8145C23.864 21.7502 23.8142 21.6944 23.7545 21.6507L19.7523 19.0807C19.6877 19.0328 19.6142 18.9986 19.536 18.9799C19.4579 18.9613 19.3767 18.9586 19.2975 18.9721C19.2183 18.9856 19.1427 19.015 19.0751 19.0585C19.0076 19.102 18.9495 19.1587 18.9044 19.2253C18.5834 19.6993 17.8511 20.7371 17.8511 20.7371C17.8511 20.7371 16.1379 21.6597 13.1071 18.6285C13.0612 18.5826 13.0244 18.5399 12.9804 18.4946C12.9351 18.4505 12.8924 18.4138 12.8465 18.3679C9.8156 15.3367 10.738 13.6234 10.738 13.6234C10.738 13.6234 11.7759 12.891 12.2498 12.5699C12.3163 12.5248 12.373 12.4668 12.4165 12.3992C12.46 12.3316 12.4894 12.256 12.5029 12.1768C12.5164 12.0976 12.5137 12.0164 12.4951 11.9383C12.4764 11.8601 12.4422 11.7865 12.3944 11.7219L9.82461 7.71938C9.78094 7.65967 9.72512 7.60988 9.66083 7.57329C9.59654 7.5367 9.52522 7.51413 9.45159 7.50709C9.37795 7.50004 9.30365 7.50866 9.23359 7.53239C9.16352 7.55612 9.09927 7.59442 9.04507 7.64477C8.44987 8.19969 7.2214 9.42311 7.03346 9.81558C6.58248 10.7849 6.52028 11.8902 6.85969 12.904C7.73432 15.56 9.22081 17.9734 11.1993 19.9494C11.2549 20.0051 11.3114 20.0535 11.3672 20.1079C11.4216 20.1638 11.4701 20.2202 11.5257 20.2759C13.5015 22.2545 15.9146 23.7412 18.5704 24.6159C19.5841 24.9553 20.6893 24.8931 21.6585 24.4421C21.753 24.3894 21.8425 24.3282 21.9258 24.2591L22.9368 24.7379C23.9861 25.239 25.1883 25.3156 26.2927 24.9515C27.3971 24.5874 28.3182 23.8109 28.8638 22.7839C29.9403 20.6785 30.4981 18.3463 30.491 15.9817C30.4875 13.9337 30.0663 11.908 29.2533 10.0284C28.4403 8.14876 27.2524 6.45475 25.7624 5.04993Z" fill="#233B8E"/>
</svg>
