<svg xmlns="http://www.w3.org/2000/svg" viewBox="0 0 64 64"><g id="Layer_44" data-name="Layer 44"><path d="M56.88,23.28H55.15V15.2A1.25,1.25,0,0,0,53.9,14H51.17v-2a1.24,1.24,0,0,0-.31-.77h0l-.06-.05-8-8A1.22,1.22,0,0,0,42,2.75H14.08A1.25,1.25,0,0,0,12.83,4V14H10.1A1.25,1.25,0,0,0,8.85,15.2v8.08H7.12a4.26,4.26,0,0,0-4.25,4.25V51.4a4.26,4.26,0,0,0,4.25,4.25h5.71V60a1.25,1.25,0,0,0,1.25,1.25H49.92A1.25,1.25,0,0,0,51.17,60V55.65h5.71a4.26,4.26,0,0,0,4.25-4.25V27.53A4.26,4.26,0,0,0,56.88,23.28Zm-4.23-6.83v6.83H51.17V16.45ZM43.21,7l3.69,3.69H43.21ZM15.33,5.25H40.71V12A1.24,1.24,0,0,0,42,13.21h6.71V23.28H15.33Zm-4,11.2h1.48v6.83H11.35Zm37.32,42.3H15.33v-18H48.67Zm10-7.35a1.76,1.76,0,0,1-1.75,1.75H51.17V40.72H53.9a1.25,1.25,0,1,0,0-2.5H10.1a1.25,1.25,0,0,0,0,2.5h2.73V53.15H7.12A1.76,1.76,0,0,1,5.37,51.4V27.53a1.76,1.76,0,0,1,1.75-1.75H56.88a1.76,1.76,0,0,1,1.75,1.75Z" id="id_102" style="fill: rgb(29, 55, 133);"></path></g></svg>